HIERARCHY
ROOT Hips
{
	OFFSET 0.00 0.00 0.00
	CHANNELS 6 Xposition Yposition Zposition Xrotation Yrotation Zrotation
	JOINT Spine
	{
		OFFSET 0.00000 3.24121 0.00000
		CHANNELS 3 Xrotation Yrotation Zrotation
		JOINT Head
		{
			OFFSET 0.00000 18.38296 0.00000
			CHANNELS 3 Xrotation Yrotation Zrotation
			End Site
			{
				OFFSET 0.00000 4.52755 0.00000
			}
		}
		JOINT LeftShoulder
		{
			OFFSET 0.00000 12.82826 0.00000
			CHANNELS 3 Xrotation Yrotation Zrotation
			JOINT LeftArm
			{
				OFFSET 7.74805 0.00000 0.00000
				CHANNELS 3 Xrotation Yrotation Zrotation
				JOINT LeftForeArm
				{
					OFFSET 10.63561 0.00000 0.00000
					CHANNELS 3 Yrotation Zrotation Xrotation
					JOINT LeftHand
					{
						OFFSET 8.34675 0.00000 0.00000
						CHANNELS 3 Xrotation Yrotation Zrotation
						JOINT LeftHandThumb1
						{
							OFFSET 0.00000 0.00000 0.00000
							CHANNELS 3 Xrotation Zrotation Yrotation
							End Site
							{
								OFFSET 0.00000 0.00000 3.93700
							}
						}
						End Site
						{
							OFFSET 3.93700 0.00000 0.00000
						}
					}
				}
			}
		}
		JOINT RightShoulder
		{
			OFFSET 0.00000 12.82826 0.00000
			CHANNELS 3 Xrotation Yrotation Zrotation
			JOINT RightArm
			{
				OFFSET -7.74805 0.00000 0.00000
				CHANNELS 3 Xrotation Yrotation Zrotation
				JOINT RightForeArm
				{
					OFFSET -10.63561 0.00000 0.00000
					CHANNELS 3 Yrotation Zrotation Xrotation
					JOINT RightHand
					{
						OFFSET -8.34675 0.00000 0.00000
						CHANNELS 3 Xrotation Yrotation Zrotation
						JOINT RightHandThumb1
						{
							OFFSET 0.00000 0.00000 0.00000
							CHANNELS 3 Xrotation Zrotation Yrotation
							End Site
							{
								OFFSET 0.00000 0.00000 3.93700
							}
						}
						End Site
						{
							OFFSET -3.93700 0.00000 0.00000
						}
					}
				}
			}
		}
	}
	JOINT LeftUpLeg
	{
		OFFSET 3.43402 0.00000 0.00000
		CHANNELS 3 Xrotation Yrotation Zrotation
		JOINT LeftLeg
		{
			OFFSET 0.00000 -15.71302 0.00000
			CHANNELS 3 Xrotation Yrotation Zrotation
			JOINT LeftFoot
			{
				OFFSET 0.00000 -14.43512 0.00000
				CHANNELS 3 Xrotation Yrotation Zrotation
				JOINT LeftToeBase
				{
					OFFSET 0.00000 -1.27828 4.77061
					CHANNELS 3 Xrotation Yrotation Zrotation
					End Site
					{
						OFFSET 0.00000 0.00000 2.95275
					}
				}
			}
		}
	}
	JOINT RightUpLeg
	{
		OFFSET -3.43402 0.00000 0.00000
		CHANNELS 3 Xrotation Yrotation Zrotation
		JOINT RightLeg
		{
			OFFSET 0.00000 -15.71302 0.00000
			CHANNELS 3 Xrotation Yrotation Zrotation
			JOINT RightFoot
			{
				OFFSET 0.00000 -14.43512 0.00000
				CHANNELS 3 Xrotation Yrotation Zrotation
				JOINT RightToeBase
				{
					OFFSET 0.00000 -1.27828 4.77061
					CHANNELS 3 Xrotation Yrotation Zrotation
					End Site
					{
						OFFSET 0.00000 0.00000 2.95275
					}
				}
			}
		}
	}
}
MOTION
Frames: 15
Frame Time: 0.008333
 -4.7198 32.4317 -6.8651 34.3376 4.5677 -1.7301 -38.7756 -5.7835 0.6933 7.5014 -1.5516 -7.2618 36.8722 31.5101 15.2400 -54.2382 -8.7363 -43.1726 -2.7060 0.0000 18.0318 0.3556 25.2341 -0.8341 33.1476 -0.0000 26.2537 33.9582 -34.2837 -19.6779 -60.8499 -9.8621 46.6143 20.7599 0.0000 -20.3899 7.9862 13.9494 -30.1985 32.8623 0.0000 -24.3270 -29.0316 2.1491 1.2088 -0.4825 -0.0000 -0.0000 -5.6662 -1.6847 -2.0941 1.9328 0.0000 0.0000 -27.7336 -8.3275 -0.8634 -3.0422 -0.0000 -0.0000 -7.8207 -13.2987 12.7329 16.1793 -0.0000 -0.0000
 -4.7123 32.4338 -6.8723 34.3418 4.5571 -1.7117 -38.7737 -5.7540 0.7295 7.5397 -1.4360 -7.3556 37.2704 31.4339 14.8580 -54.1678 -8.9553 -43.8527 -3.0495 0.0000 18.0315 0.3340 25.3127 -0.7812 33.1476 -0.0000 26.2537 34.2125 -34.1615 -19.4578 -61.3770 -11.1223 46.7415 22.7530 0.0000 -20.1665 7.6193 13.4654 -29.8762 32.8623 0.0000 -24.3270 -29.0519 2.1468 1.1857 -0.4709 0.0000 -0.0000 -5.6441 -1.6838 -2.1079 1.9483 0.0000 -0.0000 -27.7624 -8.4268 -0.8875 -3.0407 -0.0000 0.0000 -7.7805 -13.1948 12.7602 16.1361 -0.0000 0.0000
 -4.7067 32.4353 -6.8769 34.3183 4.5364 -1.6939 -38.7477 -5.7179 0.7656 7.5770 -1.3193 -7.4294 37.5779 31.3176 14.5529 -54.0829 -9.0606 -44.5760 -3.4164 0.0000 18.0189 0.2623 25.2880 -0.6141 33.1476 -0.0000 26.2537 34.4907 -33.9894 -19.2135 -61.8460 -12.3424 46.8225 24.7337 0.0000 -19.9641 7.2487 13.0653 -29.3643 32.8623 0.0000 -24.3270 -29.0320 2.1524 1.1760 -0.4761 0.0000 0.0000 -5.6071 -1.6883 -2.1345 1.8918 -0.0000 -0.0000 -27.7603 -8.4395 -0.9020 -3.0277 0.0000 -0.0000 -7.7669 -13.1571 12.7426 16.1697 0.0000 -0.0000
 -4.7005 32.4366 -6.8805 34.2701 4.5021 -1.6660 -38.6969 -5.6737 0.8073 7.6184 -1.1682 -7.5148 37.9533 31.2043 14.1937 -54.0822 -9.1493 -45.3225 -3.7680 0.0000 18.0153 0.1716 25.2599 -0.4023 33.1476 -0.0000 26.2537 34.8417 -33.8691 -18.9177 -62.3906 -13.4970 46.9643 26.6774 0.0000 -19.8670 6.9832 12.9287 -28.6987 32.8623 0.0000 -24.3270 -28.9795 2.1504 1.1642 -0.4886 -0.0000 0.0000 -5.6082 -1.6346 -2.1659 1.9517 -0.0000 0.0000 -27.7303 -8.4300 -0.9160 -3.0241 0.0000 -0.0000 -7.7470 -13.1340 12.7459 16.1609 0.0000 0.0000
 -4.6947 32.4371 -6.8812 34.1390 4.4859 -1.6433 -38.5613 -5.6521 0.8502 7.6632 -1.0032 -7.6079 38.3844 31.0879 13.7840 -54.1464 -9.1115 -46.0603 -4.2831 0.0000 18.1259 0.1663 25.2696 -0.3895 33.1476 -0.0000 26.2537 35.1035 -33.7212 -18.6921 -62.7580 -14.6017 47.1612 28.6843 0.0000 -19.5829 6.6281 12.6071 -28.0302 32.8623 0.0000 -24.3270 -28.8401 2.1321 1.1557 -0.4906 -0.0000 0.0000 -5.6282 -1.6072 -2.1142 2.0337 -0.0000 -0.0000 -27.5985 -8.4636 -0.9241 -3.0404 -0.0000 0.0000 -7.7202 -13.0978 12.7820 16.1642 0.0000 0.0000
 -4.6869 32.4375 -6.8859 34.0560 4.4598 -1.6226 -38.4601 -5.6398 0.9088 7.6728 -0.8352 -7.7310 38.7762 30.9658 13.4003 -54.2442 -8.9528 -46.8654 -4.8179 0.0000 18.2595 0.1019 25.2374 -0.2390 33.1476 -0.0000 26.2537 35.3992 -33.6061 -18.4476 -63.1903 -15.6590 47.4168 30.6865 0.0000 -19.3377 6.3040 12.2642 -27.4771 32.8623 0.0000 -24.3270 -28.7567 2.1217 1.1465 -0.4970 0.0000 -0.0000 -5.6293 -1.5906 -2.1162 2.0539 0.0000 -0.0000 -27.5296 -8.4929 -0.9362 -3.0447 0.0000 -0.0000 -7.7057 -13.0469 12.7850 16.1752 -0.0000 0.0000
 -4.6787 32.4380 -6.8910 33.9859 4.4253 -1.5941 -38.3741 -5.5944 0.9632 7.6914 -0.6981 -7.8474 39.2386 30.8322 12.9464 -54.4086 -8.8084 -47.6377 -5.3754 0.0000 18.4992 0.1167 25.1431 -0.2746 33.1476 -0.0000 26.2537 35.6389 -33.5177 -18.2021 -63.4123 -16.4804 47.7341 32.5953 0.0000 -19.4404 6.1910 12.2036 -27.1653 32.8623 0.0000 -24.3270 -28.6828 2.0996 1.1299 -0.5066 -0.0000 -0.0000 -5.6156 -1.5452 -2.0949 2.0089 0.0000 0.0000 -27.4772 -8.5559 -0.9503 -3.0518 0.0000 0.0000 -7.6763 -12.9564 12.7954 16.1729 -0.0000 -0.0000
 -4.6702 32.4387 -6.8974 33.9577 4.3967 -1.5561 -38.3320 -5.5297 0.9998 7.7052 -0.5653 -7.9416 39.7113 30.7235 12.4784 -54.4526 -8.9748 -48.4255 -5.7913 0.0000 18.4451 0.0916 25.0137 -0.2167 33.1476 -0.0000 26.2537 35.9290 -33.4543 -17.9479 -63.6756 -17.3713 48.1222 34.5290 0.0000 -19.8355 6.1505 12.3167 -26.8014 32.8623 0.0000 -24.3270 -28.6542 2.0917 1.1004 -0.5167 -0.0000 -0.0000 -5.5942 -1.5100 -2.1288 2.0339 -0.0000 -0.0000 -27.4636 -8.5787 -0.9800 -3.0719 0.0000 -0.0000 -7.6454 -12.9155 12.8195 16.1546 0.0000 -0.0000
 -4.6636 32.4384 -6.8999 33.8924 4.3890 -1.5420 -38.2596 -5.4912 1.0435 7.7303 -0.4352 -8.0420 40.0702 30.5757 12.0767 -54.3771 -9.2070 -49.2426 -6.1453 0.0000 18.2269 -0.0710 24.9420 0.1685 33.1476 -0.0000 26.2537 36.2157 -33.3838 -17.6893 -63.8052 -18.1245 48.5212 36.4676 0.0000 -20.0151 6.0652 12.2705 -26.5633 32.8623 0.0000 -24.3270 -28.5828 2.0518 1.0892 -0.5264 0.0000 -0.0000 -5.5886 -1.4885 -2.1240 2.0170 -0.0000 0.0000 -27.3890 -8.5408 -0.9922 -3.1054 0.0000 0.0000 -7.6325 -12.9547 12.7878 16.1705 -0.0000 -0.0000
 -4.6569 32.4382 -6.9025 33.7941 4.3615 -1.5275 -38.1546 -5.4325 1.1048 7.7715 -0.3184 -8.1547 40.4271 30.3935 11.7009 -54.3618 -9.2124 -50.1081 -6.6565 0.0000 18.1225 -0.2314 24.8911 0.5498 33.1476 -0.0000 26.2537 36.6301 -33.3409 -17.3740 -64.1331 -19.0294 48.9343 38.4298 0.0000 -19.9452 5.8794 12.1399 -26.0893 32.8623 0.0000 -24.3270 -28.4826 2.0650 1.0811 -0.5326 -0.0000 -0.0000 -5.6092 -1.4577 -2.0799 2.0597 -0.0000 0.0000 -27.2924 -8.5594 -0.9940 -3.1236 -0.0000 -0.0000 -7.6034 -12.9088 12.8059 16.1661 -0.0000 0.0000
 -4.6510 32.4383 -6.9084 33.7438 4.3693 -1.5164 -38.0926 -5.4112 1.1241 7.8087 -0.1810 -8.2083 40.6745 30.2199 11.4312 -54.2671 -9.0709 -51.0563 -7.3413 0.0000 18.1254 -0.3556 25.0582 0.8396 33.1476 -0.0000 26.2537 37.0754 -33.2185 -17.0196 -64.3681 -19.8193 49.2756 40.3844 0.0000 -20.0011 5.8338 12.2499 -25.7131 32.8623 0.0000 -24.3270 -28.4447 2.0084 1.0636 -0.5216 0.0000 0.0000 -5.5983 -1.4345 -2.0630 2.0405 -0.0000 -0.0000 -27.2384 -8.5696 -1.0124 -3.1566 0.0000 0.0000 -7.5881 -12.9251 12.8310 16.1947 0.0000 0.0000
 -4.6442 32.4388 -6.9125 33.7068 4.3842 -1.5138 -38.0521 -5.3852 1.1440 7.8597 -0.0398 -8.2529 40.8166 30.0262 11.2501 -54.0193 -8.9913 -52.0338 -7.9913 0.0000 18.0439 -0.4259 25.0024 1.0075 33.1476 -0.0000 26.2537 37.5351 -33.0944 -16.6765 -64.6186 -20.6693 49.6868 42.4065 0.0000 -20.5124 5.9052 12.5252 -25.4977 32.8623 0.0000 -24.3270 -28.4159 1.9429 1.0492 -0.5180 -0.0000 0.0000 -5.5873 -1.4103 -2.0615 2.0052 0.0000 0.0000 -27.1947 -8.6507 -1.0265 -3.1944 -0.0000 0.0000 -7.5510 -12.8533 12.8167 16.1439 -0.0000 -0.0000
 -4.6347 32.4399 -6.9186 33.7084 4.3767 -1.5007 -38.0474 -5.3516 1.1779 7.9094 0.1352 -8.3179 41.0534 29.8438 11.0097 -53.8493 -8.8218 -53.0337 -8.7253 0.0000 18.0775 -0.4356 25.0283 1.0295 33.1476 -0.0000 26.2537 37.9458 -32.9647 -16.3772 -64.6833 -21.3051 50.1262 44.4825 0.0000 -21.5734 6.0048 12.6461 -25.6629 32.8623 0.0000 -24.3270 -28.4258 1.8971 1.0252 -0.5133 -0.0000 0.0000 -5.5792 -1.3633 -2.0537 2.0330 -0.0000 -0.0000 -27.2032 -8.6824 -1.0503 -3.2195 0.0000 0.0000 -7.5192 -12.8247 12.8460 16.1848 0.0000 0.0000
 -4.6291 32.4400 -6.9266 33.6531 4.3582 -1.4849 -37.9679 -5.3119 1.2093 7.9375 0.3334 -8.3742 41.4040 29.6544 10.6906 -53.7890 -8.6456 -53.9994 -9.4170 0.0000 18.0855 -0.5072 24.9698 1.2014 33.1476 -0.0000 26.2537 38.4257 -32.8406 -16.0367 -64.8779 -22.0472 50.6094 46.6059 0.0000 -22.2443 5.9668 12.5463 -25.6943 32.8623 0.0000 -24.3270 -28.3907 1.8793 1.0198 -0.4875 0.0000 0.0000 -5.5674 -1.3284 -2.2083 1.9767 0.0000 -0.0000 -27.1890 -8.7356 -1.0625 -3.1784 0.0000 0.0000 -7.5280 -12.7441 12.8472 16.1764 -0.0000 0.0000
 -4.6240 32.4397 -6.9314 33.6212 4.3622 -1.4809 -37.9232 -5.2833 1.2312 7.9664 0.4841 -8.4349 41.7056 29.4621 10.3936 -53.7664 -8.4083 -54.9789 -10.0677 0.0000 18.1542 -0.4415 24.7854 1.0530 33.1476 -0.0000 26.2537 38.7789 -32.7233 -15.7624 -65.0044 -22.7862 51.1277 48.5608 0.0000 -23.2629 6.1268 13.1005 -25.3413 32.8623 0.0000 -24.3270 -28.3721 1.8437 1.0119 -0.4810 0.0000 -0.0000 -5.5678 -1.3311 -2.1480 1.9534 -0.0000 -0.0000 -27.1577 -8.7640 -1.0714 -3.2024 0.0000 0.0000 -7.5137 -12.7228 12.8289 16.1889 -0.0000 0.0000
